<?xml version="1.0" standalone="no"?>
<!DOCTYPE svg PUBLIC "-//W3C//DTD SVG 20010904//EN"
 "http://www.w3.org/TR/2001/REC-SVG-20010904/DTD/svg10.dtd">
<svg version="1.0" xmlns="http://www.w3.org/2000/svg"
 width="222.000000pt" height="227.000000pt" viewBox="0 0 222.000000 227.000000"
 preserveAspectRatio="xMidYMid meet">

<g transform="translate(0.000000,227.000000) scale(0.100000,-0.100000)"
fill="#000000" stroke="none">
<path d="M990 2260 c-364 -47 -671 -257 -849 -582 -94 -172 -151 -426 -136
-613 39 -489 356 -888 809 -1019 578 -168 1189 181 1360 777 150 523 -96 1083
-584 1330 -174 88 -416 131 -600 107z m359 -50 c267 -64 495 -223 651 -456
289 -428 238 -1020 -119 -1387 -393 -405 -991 -448 -1428 -105 -201 158 -350
403 -400 656 -22 116 -22 318 0 434 90 456 468 815 922 877 98 14 275 5 374
-19z"/>
<path d="M973 2210 c-149 -21 -320 -87 -444 -170 -88 -59 -219 -189 -278 -274
-235 -341 -264 -763 -79 -1131 137 -273 384 -472 683 -552 87 -23 120 -26 255
-27 138 0 166 3 255 27 386 105 667 391 772 785 23 84 26 118 27 257 1 177
-12 257 -66 400 -153 401 -529 675 -948 690 -63 2 -143 0 -177 -5z m368 -39
c126 -32 231 -78 328 -142 452 -298 609 -886 366 -1374 -143 -288 -395 -487
-710 -561 -124 -29 -339 -25 -466 8 -236 63 -448 210 -588 408 -247 350 -266
816 -47 1175 171 283 441 461 771 509 66 10 272 -4 346 -23z"/>
<path d="M642 1457 c-254 -381 -462 -694 -462 -697 0 -3 414 -5 920 -5 506 0
920 2 920 4 0 2 -73 121 -161 263 l-162 258 -258 0 -259 0 -70 -105 c-38 -57
-70 -109 -70 -115 0 -7 89 -10 263 -10 l264 0 14 -27 c7 -16 15 -31 17 -35 2
-5 -219 -8 -492 -8 -273 0 -496 3 -496 6 0 3 78 124 173 267 95 144 206 312
247 374 53 81 77 110 85 103 7 -6 72 -98 146 -205 l133 -195 138 0 138 0 -127
188 c-70 103 -192 282 -271 397 -80 116 -147 216 -149 223 -3 6 -8 12 -12 12
-3 -1 -214 -312 -469 -693z"/>
<path d="M350 687 c-49 -24 -75 -112 -46 -153 12 -16 27 -19 107 -19 91 0 93
1 100 25 l6 25 11 -27 c10 -25 17 -28 56 -28 34 0 48 5 60 21 16 23 46 20 46
-5 0 -11 22 -14 117 -15 67 0 122 4 129 10 9 7 19 7 33 0 11 -6 39 -11 63 -11
l43 0 23 88 c12 48 22 90 22 94 0 4 -72 7 -161 5 l-161 -2 -24 -28 -24 -28 -6
30 c-6 27 -11 31 -39 31 -26 0 -37 -7 -54 -32 -18 -29 -21 -30 -21 -11 0 12
-9 27 -19 33 -28 14 -230 13 -261 -3z m534 -79 c-9 -30 -8 -30 -42 -26 -26 3
-28 6 -21 26 6 16 16 22 39 22 28 0 31 -3 24 -22z"/>
<path d="M1162 616 c-12 -46 -22 -89 -22 -95 0 -7 33 -11 100 -11 89 0 100 2
110 20 6 11 18 20 26 20 9 0 18 -9 21 -20 5 -17 14 -20 59 -20 49 0 54 2 60
25 7 28 24 24 24 -6 0 -18 6 -20 62 -17 57 3 63 5 69 28 l6 25 11 -27 c10 -25
17 -28 56 -28 34 0 48 5 60 21 16 24 46 20 46 -6 0 -11 11 -15 40 -15 37 0 40
2 35 23 -5 25 -25 148 -25 160 0 4 -15 7 -34 7 -25 0 -38 -6 -51 -27 -17 -25
-18 -25 -28 -7 -6 10 -15 22 -21 26 -6 4 -72 7 -148 7 l-137 0 -7 -35 c-7 -39
-24 -29 -24 14 0 34 -53 31 -85 -5 -19 -22 -24 -24 -25 -11 0 26 -32 38 -97
38 l-59 0 -22 -84z"/>
<path d="M488 426 c-16 -37 -4 -56 37 -56 19 0 45 6 56 13 17 10 23 10 26 0 3
-7 12 -13 20 -13 10 0 13 6 9 16 -3 9 -6 27 -6 40 0 35 -23 30 -51 -11 -20
-28 -28 -33 -49 -28 -33 8 -33 8 -21 31 6 12 21 23 33 25 17 3 14 5 -10 6 -25
1 -35 -4 -44 -23z"/>
<path d="M661 419 c-14 -39 -14 -49 -1 -49 6 0 10 7 10 15 0 8 7 15 15 15 8 0
15 -7 15 -15 0 -8 5 -15 10 -15 6 0 10 8 10 18 0 10 5 23 11 29 17 17 2 33
-31 33 -23 0 -30 -6 -39 -31z m54 11 c3 -5 -3 -10 -15 -10 -12 0 -18 5 -15 10
3 6 10 10 15 10 5 0 12 -4 15 -10z"/>
<path d="M751 419 c-13 -39 -7 -49 27 -48 26 0 26 1 5 9 -19 8 -21 13 -13 39
11 41 -5 40 -19 0z"/>
<path d="M824 425 c-21 -33 -12 -55 24 -55 36 0 52 16 52 52 0 24 -4 28 -30
28 -20 0 -35 -8 -46 -25z m56 -4 c0 -25 -27 -48 -41 -34 -8 8 -7 17 0 32 14
26 41 28 41 2z"/>
<path d="M916 434 c-9 -23 1 -34 30 -34 14 0 23 -4 20 -9 -4 -5 -17 -8 -31 -6
-14 1 -28 -2 -31 -6 -3 -5 13 -9 34 -9 27 0 42 5 46 16 8 22 -1 34 -27 34 -27
0 -11 17 23 23 16 3 11 5 -16 6 -30 1 -44 -4 -48 -15z"/>
<path d="M1062 438 c-7 -7 -12 -25 -12 -40 0 -25 3 -28 35 -28 19 0 35 4 35 9
0 5 3 16 6 25 4 11 0 16 -14 16 -24 0 -38 -16 -20 -23 7 -2 10 -8 5 -12 -4 -5
-13 -3 -19 3 -18 18 2 45 38 53 28 6 28 7 -6 8 -20 0 -41 -4 -48 -11z"/>
<path d="M1143 410 c-8 -32 -8 -40 3 -40 8 0 14 7 14 15 0 8 5 15 10 15 6 0
13 -7 16 -15 4 -8 11 -15 16 -15 6 0 8 7 5 15 -4 8 -2 17 3 20 6 4 10 15 10
26 0 15 -7 19 -33 19 -30 0 -34 -4 -44 -40z m57 20 c0 -5 -7 -10 -16 -10 -8 0
-12 5 -9 10 3 6 10 10 16 10 5 0 9 -4 9 -10z"/>
<path d="M1245 415 c-30 -40 -28 -53 5 -33 18 10 24 10 27 1 3 -7 10 -13 17
-13 16 0 6 72 -10 77 -6 2 -23 -13 -39 -32z"/>
<path d="M1330 431 c-5 -11 -10 -29 -10 -40 0 -17 6 -21 30 -21 17 0 30 4 30
10 0 5 -7 7 -15 4 -19 -8 -31 22 -15 41 6 7 21 16 33 18 15 3 12 5 -10 6 -23
1 -35 -5 -43 -18z"/>
<path d="M1411 419 c-13 -39 -14 -49 -2 -49 5 0 13 18 19 40 12 47 -1 54 -17
9z"/>
<path d="M1450 426 c-19 -36 -7 -56 32 -56 l33 1 -30 14 -30 13 27 1 c36 1 47
21 12 21 -30 0 -23 15 11 23 14 3 10 5 -11 6 -23 1 -34 -5 -44 -23z"/>
<path d="M1615 435 c-3 -8 -7 -22 -10 -30 -2 -9 -15 -20 -27 -25 -22 -8 -22
-9 5 -9 23 -1 31 5 43 34 17 41 17 45 4 45 -6 0 -13 -7 -15 -15z"/>
<path d="M1651 419 c-14 -39 -14 -49 -1 -49 6 0 10 7 10 15 0 8 5 15 10 15 6
0 13 -7 16 -15 8 -21 24 -19 24 3 0 10 5 23 11 29 17 17 2 33 -31 33 -23 0
-30 -6 -39 -31z m54 11 c3 -5 -3 -10 -15 -10 -12 0 -18 5 -15 10 3 6 10 10 15
10 5 0 12 -4 15 -10z"/>
</g>
</svg>
