<?xml version="1.0" standalone="no"?>
<!DOCTYPE svg PUBLIC "-//W3C//DTD SVG 20010904//EN"
 "http://www.w3.org/TR/2001/REC-SVG-20010904/DTD/svg10.dtd">
<svg version="1.0" xmlns="http://www.w3.org/2000/svg"
 width="261.000000pt" height="193.000000pt" viewBox="0 0 261.000000 193.000000"
 preserveAspectRatio="xMidYMid meet">

<g transform="translate(0.000000,193.000000) scale(0.100000,-0.100000)"
fill="#000000" stroke="none">
<path d="M1305 1897 c-20 -30 -286 -422 -652 -957 -50 -74 -139 -205 -197
-290 -57 -85 -131 -193 -163 -240 -184 -267 -274 -402 -270 -406 2 -2 584 -3
1294 -2 l1290 3 -217 350 -218 350 -366 3 -366 2 -95 -142 -95 -143 367 -5
367 -5 43 -65 44 -65 -742 -3 c-408 -1 -744 0 -747 3 -6 5 738 1125 747 1125
3 0 98 -135 211 -300 l205 -299 178 -1 178 0 -42 63 c-24 34 -93 134 -154 222
-61 88 -216 312 -344 498 -128 185 -233 337 -234 337 -1 -1 -11 -15 -22 -33z"/>
</g>
</svg>
